<svg width="2058" height="1481" viewBox="0 0 2058 1481" fill="#FFF5F0" xmlns="http://www.w3.org/2000/svg">
<path d="M1846.3 1026.87C1827.41 994.515 1791.13 935.316 1697.25 944.101C1639.68 949.421 1576.85 960.674 1522.1 960.742C1431.85 960.906 1374.01 912.237 1280.53 916.93C1230.06 919.494 1173.47 942.809 1118.42 974.03C1063.36 1005.25 1017.27 1049.95 1004.67 1088.43C985.549 1147.23 1043.72 1174.21 1074.44 1212.15C1110.61 1256.79 1109.53 1322.05 1147.51 1365.56C1182.15 1405.31 1249.62 1424.65 1333.63 1418.98C1379.53 1415.87 1428.09 1403.83 1474.64 1396.9C1521.19 1389.98 1582.53 1400.51 1624.66 1421.59C1660.46 1439.41 1699.07 1461.13 1743.05 1471.32C1828.29 1490.97 1947.5 1481.83 2018.93 1398.08C2029.62 1385.58 2045.8 1358.31 2033.61 1320C2032.06 1314.92 2020.32 1288.06 2030.89 1257.3C2047.59 1208.57 2078.13 1165.12 2036.66 1133.45C2010.1 1113.28 1968.32 1107.25 1932.45 1095C1900.27 1084.24 1862.86 1055.28 1846.3 1026.87Z" fill="white"/>
<path d="M1127.1 1361.34C1145.93 1380.67 1170.08 1396.68 1198.83 1408.89C1217.91 1416.84 1240.1 1421.93 1264.59 1423.97C1288 1425.89 1310.89 1423.21 1340.96 1418.28C1261.09 1410.26 1190.29 1387.22 1151.26 1344.03C1123.96 1313.84 1113.08 1275.14 1093.27 1240.99C1077.59 1213.83 1056.18 1189.57 1040.65 1162.33C1027.99 1140.11 1024.71 1107.48 1038.04 1076.87C1047.4 1053.56 1064.18 1029.89 1087.05 1007.75C1134.62 962.127 1182.32 940.622 1219.96 931.846C1304.53 912.15 1344.01 922.886 1387.3 932.465C1355.34 914.78 1320.8 902.549 1258.91 908.246C1199.55 913.777 1102.54 946.97 1032.36 1032.02C1011.42 1057.75 998.32 1084.28 994.207 1109.3C989.227 1134.87 1000.59 1164.72 1013.78 1183.5C1033.62 1211.76 1056.74 1237.77 1071.6 1268.72C1084.31 1295.07 1093.46 1322.51 1112.84 1345.84C1117.48 1351.11 1122.07 1356.35 1127.1 1361.34Z" fill="#C4C4C4" fill-opacity="0.28"/>
<g clip-path="url(#clip1_230_149)">
<path d="M383.155 18.8074C353.966 9.58504 299.749 -6.80747 261.637 23.4057C238.223 41.9024 216.11 64.5298 190.693 79.8832C148.834 105.212 91.2359 99.575 50.7299 127.84C28.8769 143.115 17.274 169.406 11.3685 198.813C5.46304 228.221 12.2271 261.162 30.646 281.945C58.8467 313.665 102.917 309.482 141.133 317.899C186.114 327.797 226.776 357.361 271.887 366.246C313.069 374.377 356.645 364.167 392.13 338.111C411.512 323.874 426.497 304.884 443.771 288.751C461.045 272.619 496.218 260.175 529.101 257.837C556.99 255.81 588.651 254.745 615.525 247.004C667.555 231.962 717.219 194.501 697.603 136.958C694.69 128.359 685.012 111.603 655.172 97.8344C651.244 95.9899 628.844 87.2351 614.354 70.4789C591.382 43.9548 578.166 15.9238 538.909 13.326C513.83 11.7153 490.598 20.7039 466.196 25.2501C444.447 29.4327 408.78 26.9128 383.155 18.8074Z" fill="white"/>
<path d="M259.738 370.064C280.689 373.464 302.017 373.884 323.086 371.311C336.974 369.539 350.5 365.612 363.175 359.673C375.272 353.984 384.222 346.372 395.096 335.747C352.899 354.503 305.447 363.985 260.05 355.542C228.311 349.645 198.836 335.331 168.086 325.563C143.657 317.769 118.396 312.885 93.9938 305.014C74.092 298.597 51.9789 284.88 38.8671 267.423C28.5168 254.354 21.3877 239.039 18.0548 222.714C11.3949 188.941 20.0059 165.95 31.973 151.48C58.873 118.981 84.0039 112.746 110.175 104.927C84.16 105.94 60.3819 110.122 35.199 129.996C11.0827 149.09 -13.0856 191.124 7.93481 248.9C14.4302 266.302 25.074 281.862 38.9452 294.233C52.7594 307.092 76.8756 317.302 94.8523 322.03C121.908 329.148 149.068 334.344 175.5 344.06C198.029 352.321 219.596 362.063 243.322 367.103C248.812 368.168 254.249 369.233 259.738 370.064Z" fill="#C4C4C4" fill-opacity="0.28"/>
</g>
<defs>
<clipPath id="clip0_230_149">
<rect width="390" height="171" fill="white" transform="translate(1200 219)"/>
</clipPath>
<clipPath id="clip1_230_149">
<rect width="702" height="367" fill="white" transform="translate(0 6)"/>
</clipPath>
</defs>
</svg>
