<svg width="475" height="316" viewBox="-40 0 475 316" fill="none" xmlns="http://www.w3.org/2000/svg">
<g clip-path="url(#clip0)">
<path d="M385.167 175.365C378.2 189.801 367.317 201.743 355.617 212.586C353.394 214.682 351.1 216.744 348.733 218.773C333.85 231.879 319.783 243.937 302.067 253.417C281.083 264.627 251.85 280.26 227.783 281.474C185.467 283.62 148.65 274.506 109.983 257.608C77.7166 243.538 45.8833 227.389 11.3 221.202C-35.55 212.703 -84.8834 223.397 -126.383 246.714C-155.733 263.213 -181.383 285.799 -202.767 311.578C-213.208 323.797 -222.335 337.075 -230 351.194C-232.217 355.385 -255 400.49 -256.483 399.858C-289.5 386.07 -321.167 362.637 -352.2 344.591C-357.667 341.415 -363.467 337.939 -365.967 332.084C-369.95 322.937 -364.117 312.692 -358.15 304.676C-300.967 227.971 -208.5 178.575 -112.817 173.652C-23.7 169.062 62.9333 200.795 145.617 234.307C149.372 235.851 153.339 236.821 157.383 237.185C160.07 237.524 162.799 237.28 165.383 236.469C167.346 235.573 169.062 234.215 170.383 232.511C171.789 230.732 172.811 228.681 173.385 226.489C173.958 224.297 174.071 222.009 173.717 219.771C172.9 213.95 169.567 208.761 165.7 204.321C161.833 199.88 157.367 196.005 153.667 191.365C149.704 186.466 146.661 180.894 144.683 174.916C143.683 171.898 142.953 168.798 142.5 165.652C142.177 164.374 141.954 163.073 141.833 161.76C141.833 159.898 141.75 158.035 141.717 156.172L159.767 156.338C159.939 164.484 162.712 172.362 167.683 178.824C178.217 193.128 197.133 204.005 212.983 211.489C216.439 213.108 219.944 214.599 223.5 215.963C229.246 218.145 235.118 219.983 241.083 221.468C246.7 222.848 253.3 224.794 259.117 224.794C270.933 224.594 282.45 223.946 293.683 219.805C298.494 218.261 302.877 215.619 306.483 212.088C309.9 208.395 311.883 203.073 310.517 198.25C307.6 187.905 295.05 185.643 285.767 184.745C279.525 183.923 273.225 183.623 266.933 183.847C269.7 179.024 267.15 178.658 270.65 177.361C275.133 175.698 287.533 157.403 292.317 156.355C302.517 153.91 313.983 154.459 324.467 153.478C331.3 152.829 338.217 152.646 344.967 151.815C353.927 150.464 362.998 149.99 372.05 150.401C375.561 150.627 379.049 151.122 382.483 151.881C384.65 152.38 390.283 153.029 391.467 155.208C392.65 157.386 390 162.509 389.417 164.654C388.27 168.341 386.849 171.938 385.167 175.415" fill="#BCBCBB"/>
<path d="M148.333 98.441C143.917 96.2623 140.467 94.8819 139.717 95.4473C127.517 104.678 115.3 113.925 102.967 123.072C99.5626 125.284 96.5963 128.103 94.2168 131.388C91.3335 136.095 91.4501 141.683 91.6501 147.005C91.7835 150.88 92.3001 155.321 96.0168 157.45C98.4089 158.479 101.025 158.88 103.617 158.614C117.433 158.348 131.217 158.365 144.983 157.816C157.083 157.333 169.083 157.134 181.183 157.2C182.817 142.908 184.978 128.688 187.667 114.54C184.428 114.659 181.205 115.054 178.033 115.721C176.694 116.219 175.28 116.489 173.85 116.52C172.702 115.949 171.632 115.233 170.667 114.391L153.733 102.898C151.467 101.451 151.05 99.7882 148.333 98.441Z" fill="#FAF2F2"/>
<path d="M154.8 90.2099C157.715 91.5989 160.461 93.3177 162.983 95.3324L181.667 109.17C180.305 115.63 179.745 122.232 180 128.828C175.55 124.953 170.167 122.359 165.233 119.049C159.633 115.274 148.7 107.407 148.7 107.407C148.7 107.407 137.483 120.712 132.033 127.614C130.56 129.614 128.743 131.337 126.667 132.704C119.55 136.928 109.083 134.101 100.617 134.866C98.7402 134.97 96.9013 135.433 95.2 136.229C94.8 129.577 94.8833 120.779 98.5333 114.958L111.167 94.8002C112.216 92.7551 113.799 91.031 115.75 89.8107C117.682 89.0298 119.776 88.7329 121.85 88.9459C129.75 89.1288 147.35 89.4282 149.117 89.4615C151.038 89.4229 152.954 89.6753 154.8 90.2099Z" fill="#F08674"/>
<path d="M158.567 128.246H142.583V154.491H158.567V128.246Z" fill="#E20613"/>
<path d="M158.583 155.357H142.583C142.353 155.357 142.133 155.266 141.97 155.104C141.808 154.942 141.717 154.722 141.717 154.492V128.248C141.717 128.018 141.808 127.798 141.97 127.636C142.133 127.474 142.353 127.383 142.583 127.383H158.583C158.696 127.383 158.808 127.405 158.912 127.449C159.017 127.493 159.111 127.557 159.19 127.637C159.269 127.718 159.332 127.813 159.373 127.918C159.415 128.023 159.435 128.135 159.433 128.248V154.492C159.435 154.605 159.415 154.717 159.373 154.822C159.332 154.927 159.269 155.022 159.19 155.103C159.111 155.183 159.017 155.247 158.912 155.291C158.808 155.335 158.696 155.357 158.583 155.357ZM143.45 153.694H157.717V129.112H143.45V153.694Z" fill="#F08674"/>
<path d="M107.5 154.475C105.083 155.057 102.267 156.687 102.9 158.749C103.433 160.529 106.067 160.978 108.217 161.078C125.819 161.94 143.456 161.862 161.05 160.845C165.933 160.562 177.3 160.163 177.967 160.046C178.633 159.93 179.367 159.198 180.1 158.816C180.769 158.572 181.336 158.112 181.714 157.509C182.091 156.907 182.256 156.196 182.183 155.489C181.7 153.394 178.517 152.945 176.017 152.961L138.133 153.161C132.583 153.161 127.05 153.161 121.467 153.377C117.017 153.527 111.683 152.895 107.467 154.408" fill="#BCBCBB"/>
<path d="M177.967 111.797V160.045L225.567 184.943V120.296L177.967 111.797Z" fill="#F08674"/>
<path d="M203.183 57.2305L259.533 66.1117L225.567 120.297L181.417 110.335L179.267 107.341L203.183 57.2305Z" fill="#E20613"/>
<path d="M259.533 66.1094L292.233 110.05V162.356L237.517 192.476L225.567 184.942V120.295L259.533 66.1094Z" fill="white"/>
<path d="M255.717 129.61C256.133 129.111 256.9 129.028 257.95 128.845L266.4 127.431L270.617 126.733C271.417 126.583 272.8 125.968 273.6 126.367C274.083 126.6 274 126.833 274 127.332V155.921C274.117 157.432 274.117 158.95 274 160.462L255.333 166.881V131.074C255.285 130.556 255.421 130.038 255.717 129.61Z" fill="#BCBCBB"/>
<path d="M274 160.461L279.633 161.459C280.267 161.592 280.817 161.908 280.733 162.739L280.467 165.816C280.467 166.116 280.65 166.299 281.283 166.299H286.817C286.945 166.284 287.075 166.297 287.198 166.338C287.321 166.379 287.433 166.446 287.527 166.535C287.62 166.624 287.693 166.732 287.741 166.852C287.788 166.972 287.808 167.101 287.8 167.23V173.234L266.933 183.762C266.933 183.762 267.5 177.741 267.55 177.009C267.6 176.278 267.233 175.928 266.633 175.945C265.183 175.945 262.65 176.061 262.283 175.945C261.917 175.829 261.45 175.562 261.5 174.914C261.617 173.118 261.833 169.575 261.833 168.727C261.833 167.596 261.283 167.529 260.817 167.363C260.35 167.197 255.333 166.798 255.333 166.798L274 160.461Z" fill="#F08674"/>
<path d="M187.417 143.379L209.083 149.018L209.9 132.386C209.9 132.386 191.067 127.596 189.483 128.394C187.9 129.193 188.267 132.685 188.15 134.265C187.917 137.292 187.467 143.313 187.467 143.313" fill="#FAF2F2"/>
<path d="M179.267 107.342L218.667 116.107C220.524 116.695 222.506 116.764 224.4 116.307C226.717 115.508 228.167 113.263 229.4 111.167L254.833 69.0895C255.597 67.7914 256.646 66.6827 257.9 65.8463C257.9 65.8463 262.067 65.4638 264.117 68.208C273.35 80.532 281.517 90.9434 291.533 102.386C292.854 103.558 293.925 104.984 294.683 106.577C295.2 108.24 292.2 111.799 292.2 111.799C292.2 111.799 268.867 84.0579 259.433 71.9667C248.433 90.7438 226.95 123.076 225.567 123.308C223.533 123.791 217.4 122.394 214.333 121.529C207.133 119.467 200.317 118.203 193.1 116.157C189.65 115.176 180.583 112.581 177.967 111.799C177.864 110.208 178.324 108.63 179.267 107.342Z" fill="#F08674"/>
<path d="M191.433 177.525C191.207 176.917 191.163 176.256 191.308 175.624C191.454 174.992 191.781 174.415 192.25 173.966C192.9 173.417 193.8 173.151 194.3 172.453C194.678 171.823 194.797 171.073 194.633 170.357C194.533 169.642 194.283 168.96 194.233 168.228C194.195 167.364 194.404 166.507 194.835 165.756C195.265 165.006 195.901 164.392 196.667 163.987C197.573 163.632 198.548 163.483 199.52 163.552C200.492 163.621 201.436 163.906 202.283 164.386C203.95 165.085 205.617 166.05 207.283 165.318C208.567 164.686 209.05 163.139 210 161.992C210.447 161.538 210.984 161.181 211.576 160.942C212.167 160.704 212.802 160.59 213.44 160.607C214.078 160.625 214.705 160.773 215.283 161.042C215.861 161.312 216.378 161.697 216.8 162.174C217.727 159.671 219.366 157.491 221.517 155.904C223.767 154.491 227.183 154.64 228.633 156.869C229.677 155.731 231.07 154.97 232.593 154.705C234.116 154.44 235.684 154.686 237.053 155.404C238.421 156.122 239.513 157.272 240.158 158.674C240.803 160.076 240.964 161.652 240.617 163.156C240.233 164.819 239.367 166.815 240.617 167.912C242.283 169.309 244.817 168.145 246.7 168.378C247.867 168.594 248.963 169.094 249.891 169.834C250.818 170.574 251.548 171.53 252.017 172.619C252.988 175.17 253.425 177.893 253.3 180.619C253.448 183.574 253.319 186.536 252.917 189.467C252.808 190.689 252.436 191.873 251.826 192.937C251.216 194.002 250.383 194.923 249.383 195.637C246.867 197.4 244.567 198.664 243.85 201.957C243.664 203.847 243.097 205.68 242.183 207.346C240.517 209.674 237.1 210.107 234.35 209.258C230.883 208.177 228.067 205.533 224.6 204.469C221.133 203.404 216.65 203.886 213.95 201.275C212.771 200.067 212.077 198.469 212 196.785C211.867 195.122 213.317 192.943 213.033 191.463C212.75 189.982 210.85 189.8 209.517 189.467C207.504 189.072 205.684 188.011 204.35 186.457C203.677 185.595 203.277 184.553 203.2 183.463C203.194 182.508 203.405 181.564 203.817 180.702C202.367 180.511 200.899 180.511 199.45 180.702C197.984 180.856 196.503 180.766 195.067 180.436C194.361 180.274 193.696 179.971 193.112 179.545C192.528 179.119 192.036 178.579 191.667 177.958C191.583 177.805 191.516 177.643 191.467 177.476" fill="#E20613"/>
<path d="M194.267 168.58C193.9 166.767 196.483 164.222 200.933 165.935C202.416 166.511 203.843 167.218 205.2 168.047C206.5 168.862 208.117 169.711 209.433 168.929C210.75 168.147 210.833 166.933 211.7 166.068C213.2 164.621 215.667 165.12 217.567 165.968C217.79 166.109 218.04 166.203 218.301 166.243C218.562 166.283 218.828 166.269 219.083 166.201C219.95 165.819 219.367 163.224 219.717 162.293C219.903 161.75 220.246 161.273 220.702 160.924C221.159 160.575 221.709 160.368 222.283 160.33C223.133 160.33 223.95 160.863 224.8 160.813C226.267 160.813 227.083 159.15 227.967 157.952C229.023 156.637 230.452 155.669 232.067 155.175C234.283 154.755 236.575 155.221 238.45 156.472C237.739 154.628 236.464 153.055 234.807 151.975C233.15 150.894 231.194 150.361 229.217 150.451C226.1 150.551 223.533 152.813 223.383 154.044C222.785 153.535 222.061 153.198 221.286 153.066C220.512 152.934 219.716 153.013 218.983 153.295C218.258 153.598 217.63 154.093 217.166 154.726C216.702 155.359 216.42 156.106 216.35 156.888C216.25 158.251 216.45 160.098 214.55 160.081C213.15 160.081 212.117 158.917 210.7 159.915C209.9 160.597 209.248 161.434 208.783 162.376C208.324 163.33 207.511 164.069 206.517 164.438C205.133 164.804 203.783 163.856 202.5 163.224C201.407 162.641 200.192 162.323 198.953 162.294C197.714 162.265 196.486 162.527 195.367 163.058C194.591 163.482 193.924 164.08 193.418 164.804C192.912 165.528 192.58 166.359 192.45 167.232C193.333 167.099 194.267 168.58 194.267 168.58Z" fill="#F08674"/>
<path d="M244.583 220.802C244.583 221.484 244.5 222.299 244.5 222.299C243.373 222.075 242.26 221.786 241.167 221.434C241.101 221.054 241.057 220.671 241.033 220.287C240.9 218.224 240.7 216.145 240.583 214.083C240.328 209.848 240.222 205.607 240.267 201.36C240.234 200.826 240.343 200.292 240.583 199.813C241.921 199.358 243.361 199.295 244.733 199.63V215.264C244.733 217.11 244.733 218.956 244.733 220.802" fill="#551724"/>
<path d="M232.317 174.133V192.195C232.317 197.6 231.667 199.928 233 201.009C233.772 201.589 234.633 202.038 235.55 202.34L237.733 203.105C238.117 203.238 238.6 203.371 238.883 203.105C239.052 202.887 239.135 202.615 239.117 202.34C239.233 200.411 239.283 198.481 239.3 196.536C239.3 194.872 239.1 193.209 239.3 191.679C239.633 188.586 239.583 185.426 239.65 182.316C237.823 179.605 235.674 177.126 233.25 174.931C232.973 174.645 232.672 174.383 232.35 174.149" fill="#8E0A26"/>
<path d="M253.05 196.951C253.114 197.677 252.999 198.408 252.717 199.08C252.35 199.662 251.433 199.795 250.767 199.912L243.333 201.325L240.917 201.791L239.683 202.024C239.35 202.024 239.033 202.024 238.7 202.024C238.367 202.024 238.35 202.024 238.35 202.173C238.35 202.323 238.35 202.905 238.35 203.171L243.583 202.839C245.395 202.706 247.211 202.539 249.033 202.34C250.367 202.19 251.683 202.024 253 201.841C253.283 201.84 253.564 201.782 253.824 201.67C254.085 201.559 254.32 201.396 254.517 201.192C254.73 200.807 254.822 200.367 254.783 199.928C254.783 193.52 254.561 187.116 254.117 180.719C253.583 180.935 253.05 181.001 252.85 181.5C252.767 182.205 252.801 182.919 252.95 183.613C252.95 185.076 253.05 186.54 253.067 188.003C253.067 190.864 253.067 193.725 253.067 196.569C253.058 196.668 253.058 196.768 253.067 196.868" fill="#F08674"/>
<path d="M253.333 180.537V199.979C252.1 200.179 250.883 200.411 249.65 200.628C247.783 200.977 245.917 201.326 244.05 201.626C242.183 201.925 240.4 202.058 238.6 202.391C238.467 202.391 238.35 202.391 238.3 202.391C238.25 202.391 238.3 202.191 238.3 202.058C238.3 198.249 238.3 194.441 238.4 190.615C238.4 188.703 238.5 186.774 238.567 184.861C238.567 183.896 238.567 182.948 238.683 181.984C238.683 181.501 238.683 181.019 238.683 180.537C238.725 180.077 238.725 179.615 238.683 179.156C239.283 183.098 243.833 181.767 246.55 181.418L253.217 180.537" fill="#E20613"/>
<path d="M232.317 174.134L235.817 177.726C236.619 178.572 237.354 179.478 238.017 180.437C238.653 181.41 239.598 182.142 240.7 182.516C241.938 182.699 243.196 182.699 244.433 182.516C245.065 182.424 245.711 182.507 246.299 182.756C246.886 183.006 247.394 183.412 247.767 183.93C247.905 183.461 248.152 183.032 248.488 182.676C248.824 182.321 249.239 182.049 249.7 181.884C250.628 181.565 251.602 181.402 252.583 181.402C252.983 181.406 253.379 181.332 253.75 181.185C255.033 180.537 253.75 179.522 253.25 178.99L250.883 176.412L247.733 173.086C247.626 173.011 247.497 172.976 247.367 172.986L232.317 174.134Z" fill="#551724"/>
<path d="M295.95 166.598C296.577 166.771 297.194 166.976 297.8 167.214C297.953 167.273 298.082 167.382 298.164 167.525C298.246 167.667 298.276 167.833 298.25 167.995C298.25 169.875 298.35 175.247 298.333 177.858C298.356 178.462 298.294 179.067 298.15 179.654C297.865 180.5 297.27 181.208 296.483 181.633C295.8 182.016 293.067 183.196 291.783 183.745C291.206 183.912 290.594 183.912 290.017 183.745L289.433 183.546C287.066 182.689 284.746 181.706 282.483 180.602C282.014 180.424 281.58 180.165 281.2 179.837C281.008 179.498 280.921 179.111 280.95 178.723C280.95 177.409 280.95 176.078 280.95 174.748C280.95 173.417 280.95 171.92 281.067 170.507C281.067 169.841 281.067 169.176 281.067 168.511C281.067 168.112 281.067 167.297 281.6 167.13C282.75 166.781 286.083 165.584 286.9 165.467L289.3 164.985C289.963 164.891 290.64 164.965 291.267 165.201C291.267 165.201 292.783 165.617 292.933 165.667C293.433 165.816 293.883 166.049 294.4 166.216L295.783 166.665" fill="#E20613"/>
<path d="M295.383 162.258C295.269 162.192 295.145 162.141 295.017 162.109C294.28 161.943 293.507 162.075 292.867 162.475C292.188 162.947 291.62 163.559 291.2 164.271C290.883 164.687 290.583 165.119 290.233 165.502C290.233 165.252 290.233 164.304 290.233 164.071C290.217 163.602 290.116 163.14 289.933 162.707C289.74 162.22 289.426 161.788 289.021 161.454C288.616 161.119 288.133 160.893 287.617 160.795C287.097 160.718 286.567 160.819 286.113 161.082C285.659 161.344 285.307 161.754 285.117 162.242C285.02 162.679 285.021 163.132 285.119 163.569C285.217 164.005 285.409 164.415 285.683 164.77C286.568 166.078 287.873 167.046 289.383 167.514C290.307 167.667 291.255 167.497 292.067 167.032C293.513 166.348 294.75 165.292 295.65 163.971C295.777 163.806 295.864 163.613 295.904 163.408C295.945 163.203 295.937 162.992 295.883 162.791C295.797 162.573 295.645 162.388 295.45 162.258H295.383ZM288.783 166.3C288.605 166.23 288.432 166.147 288.267 166.05C287.523 165.584 286.91 164.937 286.483 164.171C286.212 163.782 286.077 163.314 286.1 162.84C286.105 162.668 286.144 162.498 286.216 162.341C286.287 162.184 286.39 162.043 286.517 161.926C286.649 161.828 286.8 161.759 286.962 161.725C287.123 161.69 287.289 161.691 287.45 161.726C287.872 161.817 288.242 162.067 288.483 162.425C288.722 162.78 288.897 163.174 289 163.589C289.128 164.064 289.223 164.548 289.283 165.036L289.45 166.466C289.22 166.45 288.994 166.394 288.783 166.3ZM294.583 163.988C293.766 165.025 292.73 165.871 291.55 166.466C291.35 166.566 290.7 166.766 290.583 166.815H290.25L291.15 165.585C291.465 165.134 291.804 164.701 292.167 164.287C292.432 163.909 292.759 163.577 293.133 163.306C293.336 163.17 293.567 163.08 293.809 163.042C294.051 163.005 294.298 163.021 294.533 163.09C294.933 163.223 294.8 163.655 294.533 163.905" fill="#8E0A26"/>
<path d="M284.583 168.479C284.283 172.804 284.1 181.369 284.1 181.369L284.917 181.735L285.567 182.018C285.567 182.018 285.717 173.269 285.567 168.812L288.033 167.847C288.317 167.731 289.967 167.282 289.25 166.883C287.616 167.224 286.035 167.783 284.55 168.546" fill="#8E0A26"/>
<path d="M294.717 169.827C294.717 170.309 294.717 170.792 294.717 171.274C294.717 172.139 294.717 172.937 294.6 173.852C294.483 174.766 294.517 176.014 294.483 177.178C294.45 178.342 294.483 179.357 294.483 180.504C294.483 181.253 294.483 181.985 294.483 182.733L295.25 182.4C295.25 182.4 295.367 180.737 295.433 180.055C295.544 178.791 295.628 177.527 295.683 176.263C295.683 175.232 295.683 174.184 295.683 173.153C295.683 172.122 295.683 171.49 295.683 170.742C295.683 169.993 295.683 169.577 295.683 168.979C295.683 168.713 295.683 168.596 295.367 168.53C295.05 168.463 294.417 168.264 293.933 168.164L289.983 167.349C289.869 167.316 289.748 167.316 289.633 167.349C289.533 167.349 289.283 167.349 289.333 167.349C289.383 167.349 289.133 167.515 289.233 167.532L290.8 167.997L291.95 168.33C292.717 168.546 293.483 168.746 294.267 168.912C294.418 168.929 294.562 168.987 294.683 169.079C294.733 169.138 294.771 169.207 294.794 169.281C294.817 169.356 294.824 169.434 294.817 169.511C294.817 169.644 294.817 169.777 294.817 169.893" fill="#8E0A26"/>
<path d="M106.35 191.911C108.017 187.969 119.783 180.685 122.667 179.737C125.528 178.743 128.561 178.336 131.583 178.539C136.335 178.611 141.078 178.983 145.783 179.653C148.186 180.243 150.644 180.577 153.117 180.651C154.233 180.651 155.717 182.198 156.833 182.131C159.722 182.062 162.611 182.185 165.483 182.497C168.938 182.97 172.271 184.099 175.3 185.824C176.15 186.223 177.9 186.705 178.733 187.138C181.467 188.551 183.9 189.35 186.483 190.946C188.512 192.498 190.25 194.395 191.617 196.551C192.945 200.411 194.96 204 197.567 207.145C200.244 209.653 203.138 211.918 206.217 213.914L206.883 214.314C213.783 219.303 218.4 221.332 222.75 225.241C227.1 229.149 228.883 237.747 225.617 246.097C220.45 249.523 223.217 250.055 220.617 251.585C216.333 254.146 211.05 254.179 206.067 253.963C174.783 252.616 144.217 244.383 114.217 235.353C111.125 234.594 108.172 233.353 105.467 231.677C99.5333 227.586 100.567 220.817 101.033 214.43C101.574 206.686 103.37 199.081 106.35 191.911Z" fill="#E20613"/>
<path d="M226.983 241.16C226.749 244.882 225.329 248.433 222.931 251.293C220.532 254.153 217.281 256.174 213.65 257.06C211.318 257.555 208.929 257.729 206.55 257.575C200.591 257.257 194.655 256.613 188.767 255.646C188.667 255.646 189.317 247.597 189.467 246.898C190.15 246.898 190.6 246.499 191.317 246.599C193.5 246.915 204.1 248.761 207.067 248.711C213.133 248.545 221.383 247.613 226.983 241.16Z" fill="#8E0A26"/>
<path d="M110.45 250.688C116.58 250.688 121.55 245.729 121.55 239.612C121.55 233.494 116.58 228.535 110.45 228.535C104.319 228.535 99.3499 233.494 99.3499 239.612C99.3499 245.729 104.319 250.688 110.45 250.688Z" fill="#551724"/>
<path d="M181.433 262.661C187.564 262.661 192.533 257.702 192.533 251.584C192.533 245.467 187.564 240.508 181.433 240.508C175.303 240.508 170.333 245.467 170.333 251.584C170.333 257.702 175.303 262.661 181.433 262.661Z" fill="#551724"/>
<path d="M172.917 252.802L173.617 246.632L173.1 246.532L118.333 237.285C118.333 238.632 117.45 242.557 118.483 243.505C118.817 243.821 119.717 243.821 120.15 243.905L124.367 244.62L137.967 246.915L167.517 251.904C167.75 251.938 172.933 252.802 172.917 252.802Z" fill="#551724"/>
<path d="M99.6499 206.331C100.633 201.025 101.5 195.504 104.233 190.764C105.749 188.319 107.765 186.222 110.15 184.61C112.717 182.631 123.75 177.409 131.7 176.71C138.626 176.208 145.588 176.679 152.383 178.107C159.9 179.571 177.3 184.593 184.6 189.084C190.283 192.577 192.35 197.4 194.733 200.393C195.12 200.816 195.426 201.307 195.633 201.84C195.95 202.556 196.867 203.786 196.3 204.568C195.083 206.231 192.233 200.709 191.733 199.928C190.057 197.249 187.892 194.907 185.35 193.026C184.3 192.244 183.15 191.612 182.017 190.93C173.467 185.658 150.717 180.735 148.683 180.469C138.683 179.105 128.05 177.575 116.65 184.61C113.738 186.106 111.037 187.98 108.617 190.182C106.283 192.66 105.8 195.171 104.883 198.281C103.97 201.262 103.208 204.288 102.6 207.345C102.05 210.223 101.6 213.1 101.217 216.011C101.133 216.526 100.45 219.054 100.783 219.503L100.283 218.838C99.1614 214.765 98.9453 210.496 99.6499 206.331Z" fill="#F08674"/>
<path d="M190.4 219.684C193.931 218.788 197.303 217.358 200.4 215.443C201.596 214.862 202.68 214.074 203.6 213.115C202.323 212.374 201.118 211.517 200 210.553C199.167 209.506 198.55 208.092 197.783 206.961C196.583 205.148 195.383 203.352 194.2 201.539L180.05 206.529L184.25 212.316C185.947 215.046 188.017 217.525 190.4 219.684Z" fill="#FAF2F2"/>
<path d="M188.55 217.876C190.217 217.876 202.15 213.219 202.15 213.219C202.15 213.219 200.217 211.041 197.983 207.964C196.717 206.184 195.583 204.521 194.383 202.692C194.31 202.58 194.202 202.495 194.075 202.45C193.949 202.405 193.811 202.402 193.683 202.442C193.217 202.442 180.1 206.434 180.1 206.434C179.667 205.935 179.267 205.369 179 205.086C178.733 204.804 178.717 204.405 179.35 204.321L194.1 200.48C194.309 200.439 194.524 200.439 194.733 200.48C195.183 200.662 203.067 211.856 206.217 213.901C203.841 215.238 201.367 216.394 198.817 217.361C196.625 218.429 194.322 219.255 191.95 219.822C190.083 220.155 189.467 219.19 188.55 217.876Z" fill="#BCBCBB"/>
<path d="M211.567 243.404C211.567 243.404 206.7 235.604 203.233 236.618C199.767 237.633 201.95 243.454 201.95 243.454C202.291 243.553 202.645 243.603 203 243.604C204.833 243.604 208.533 243.604 210.45 243.604C210.83 243.59 211.206 243.523 211.567 243.404Z" fill="#FAF2F2"/>
<path d="M200.75 243.271C200.065 241.379 200.065 239.308 200.75 237.416C200.956 236.984 201.254 236.601 201.622 236.294C201.99 235.987 202.42 235.763 202.883 235.637C204.733 235.105 206.933 236.219 209.4 238.963C210.432 240.065 211.363 241.256 212.183 242.522C212.353 242.792 212.472 243.091 212.533 243.404C212.1 243.404 210.867 243.554 210.4 243.587C208.483 240.693 205.25 237.1 203.467 237.616C203.273 237.668 203.093 237.76 202.938 237.886C202.783 238.012 202.656 238.169 202.567 238.348C201.85 239.778 202.567 242.722 202.95 243.62C202.284 243.653 201.616 243.653 200.95 243.62C200.867 243.52 200.817 243.504 200.75 243.271Z" fill="#BCBCBB"/>
<path d="M175 222.28C171.15 207.595 154.55 202.805 154.55 202.805L153.017 219.436L153.617 219.519L175 222.28Z" fill="#FAF2F2"/>
<path d="M151.667 219.254L153.333 202.423C153.346 202.273 153.386 202.127 153.45 201.991C153.562 201.803 153.73 201.655 153.929 201.566C154.129 201.476 154.352 201.451 154.567 201.492C157.729 202.299 160.756 203.565 163.55 205.251C169.415 208.538 173.735 214.01 175.567 220.468C175.64 220.733 175.608 221.016 175.478 221.257C175.347 221.499 175.128 221.681 174.867 221.766C174.734 221.803 174.596 221.814 174.459 221.798C174.322 221.781 174.19 221.738 174.071 221.669C173.951 221.601 173.846 221.51 173.763 221.401C173.679 221.292 173.618 221.167 173.583 221.034C172.771 218.086 171.377 215.331 169.482 212.929C167.587 210.527 165.23 208.527 162.55 207.047C160.406 205.766 158.125 204.729 155.75 203.953C155.583 203.953 155.25 203.953 155.217 204.186C155.183 204.419 153.767 219.587 153.767 219.587C153.083 219.587 152.45 219.487 151.85 219.387C151.829 219.396 151.806 219.399 151.784 219.396C151.761 219.394 151.74 219.385 151.721 219.372C151.703 219.358 151.688 219.341 151.679 219.32C151.669 219.3 151.665 219.277 151.667 219.254Z" fill="#BCBCBB"/>
<path d="M175.2 215.245C174.699 214.881 174.129 214.622 173.524 214.485C172.919 214.347 172.293 214.334 171.683 214.447C170.813 214.762 170.097 215.399 169.683 216.226C169.286 217.057 168.994 217.934 168.817 218.837C168.533 219.554 168.407 220.322 168.448 221.091C168.488 221.86 168.693 222.612 169.05 223.295C169.785 224.118 170.778 224.669 171.867 224.858C173.502 225.291 175.177 225.558 176.867 225.656C178.024 225.825 179.203 225.584 180.2 224.974C180.703 224.522 181.066 223.936 181.246 223.285C181.426 222.633 181.416 221.944 181.217 221.299C180.533 218.538 177.517 216.609 175.2 215.245Z" fill="#8E0A26"/>
<path d="M141.25 222.263C140.731 222.151 140.189 222.221 139.717 222.462C139.486 222.674 139.303 222.931 139.18 223.218C139.056 223.504 138.995 223.814 139 224.126C138.934 224.41 138.928 224.704 138.982 224.991C139.037 225.277 139.151 225.549 139.317 225.789C139.71 226.109 140.21 226.269 140.717 226.238L144.7 226.537C145.646 226.728 146.63 226.606 147.5 226.188C147.777 226 148.008 225.754 148.178 225.466C148.348 225.179 148.453 224.857 148.483 224.525C148.583 222.862 147.45 222.862 146.183 222.862L141.25 222.263Z" fill="#8E0A26"/>
<path d="M129 231.93C129.867 231.93 147.45 235.14 155.35 236.47C158 236.919 160.683 237.135 163.317 237.701C164.535 237.889 165.72 238.253 166.833 238.782C167.783 239.331 167.317 239.979 166.183 240.146C165.367 240.227 164.542 240.159 163.75 239.946C161.233 239.414 158.517 239.198 155.933 238.765L147.6 237.352L135.5 235.306C133.683 234.99 127.767 234.591 127.55 232.994C127.417 232.379 128.1 231.93 129 231.93Z" fill="#8E0A26"/>
<path d="M122.15 187.388C123.316 187.319 124.484 187.319 125.65 187.388C129.386 187.374 133.119 187.568 136.833 187.97C150.145 189.394 163.082 193.244 175 199.329C175.817 199.745 176.667 200.277 176.85 200.992C177.067 202.073 175.633 202.972 174.3 202.922C172.993 202.772 171.738 202.322 170.633 201.608C164.238 198.14 157.496 195.353 150.517 193.292C143.282 191.166 135.849 189.778 128.333 189.151C126.667 188.984 125.567 189.051 123.333 188.785C122.717 188.785 120.85 188.502 121.083 187.787C121.283 187.571 121.667 187.454 122.15 187.388Z" fill="#FAB900"/>
<path d="M174.567 248.244C176.017 247.612 177.017 246.215 178.383 245.417C179.914 244.598 181.686 244.351 183.383 244.719C185.066 245.098 186.703 245.655 188.267 246.382C189.433 246.864 191 247.23 191.817 246.249C192.01 245.977 192.132 245.661 192.173 245.33C192.214 244.999 192.171 244.663 192.05 244.353C191.798 243.722 191.412 243.155 190.917 242.69C189.49 241.263 187.777 240.154 185.889 239.437C184.001 238.72 181.983 238.412 179.967 238.532C177.938 238.667 175.962 239.229 174.166 240.181C172.371 241.132 170.798 242.452 169.55 244.053C169.333 244.369 157.283 241.974 153.55 241.359L140.317 239.114C136.818 238.691 133.346 238.075 129.917 237.268C127.117 236.453 124.35 235.704 122.367 233.426C120.7 231.53 119.467 229.068 117.467 227.488C115.467 225.908 112.117 225.942 109.883 225.825C107.65 225.709 105.067 226.457 103.833 224.162C103.284 223.124 102.648 222.134 101.933 221.202C101.733 220.935 101.233 220.154 100.85 219.538C100.69 219.297 100.517 219.064 100.333 218.84C100.117 219.063 99.9425 219.322 99.8165 219.605C98.8208 221.017 98.1129 222.61 97.7332 224.295C97.5386 225.211 97.5846 226.162 97.8665 227.056C98.1426 227.858 98.3763 228.674 98.5665 229.501C98.8665 231.779 96.8999 234.158 97.8665 236.253C98.6832 238.049 101.2 238.399 103.017 237.65C104.741 236.732 106.352 235.616 107.817 234.324C108.553 233.676 109.444 233.228 110.404 233.021C111.364 232.814 112.361 232.856 113.3 233.143C115.1 233.958 115.867 236.07 117.317 237.384C118.855 238.528 120.663 239.256 122.567 239.496C130.533 241.259 138.517 242.823 146.55 244.386C150.55 245.134 154.583 245.833 158.6 246.498C160.617 246.847 162.633 247.163 164.633 247.479C166.167 247.729 167.75 247.696 169.25 247.945C171.083 248.278 172.7 249.043 174.567 248.244Z" fill="#8E0A26"/>
<path d="M111.383 195.473C111.458 195.211 111.564 194.96 111.7 194.724C111.848 194.416 112.038 194.13 112.267 193.876C112.855 193.219 113.637 192.765 114.5 192.579C115.351 192.396 116.232 192.396 117.083 192.579C117.929 192.71 118.717 193.086 119.35 193.66C119.754 194.086 120.086 194.574 120.333 195.107C120.417 195.294 120.484 195.489 120.533 195.689C120.678 196.333 120.706 196.997 120.617 197.651H120.117C120.1 197.305 120.055 196.96 119.983 196.62C119.924 196.365 119.814 196.125 119.659 195.913C119.504 195.702 119.309 195.524 119.083 195.389C118.525 195.034 117.852 194.903 117.2 195.024C116.87 195.132 116.566 195.307 116.308 195.539C116.049 195.771 115.842 196.054 115.7 196.371C115.7 196.47 115.7 196.504 115.55 196.504H115.283L113.333 196.038C112.771 195.947 112.215 195.825 111.667 195.672C111.517 195.639 111.367 195.622 111.383 195.473Z" fill="#BCBCBB"/>
<path d="M120 198.097C119.741 198.684 119.271 199.153 118.683 199.411C118.173 199.569 117.627 199.569 117.117 199.411C116.667 199.225 116.282 198.912 116.009 198.51C115.737 198.108 115.589 197.635 115.583 197.149C115.583 197.016 115.45 197.016 115.35 196.999L114.933 196.9C114.333 196.8 113.75 196.7 113.15 196.567L112.25 196.384C111.988 196.31 111.721 196.26 111.45 196.234C111.267 196.234 111.283 196.484 111.267 196.617C111.25 196.827 111.25 197.039 111.267 197.249C111.269 197.666 111.331 198.08 111.45 198.48C111.66 199.234 112.118 199.896 112.75 200.359C113.409 200.887 114.175 201.265 114.995 201.469C115.815 201.673 116.67 201.697 117.5 201.54C118.327 201.339 119.061 200.864 119.583 200.193C120.066 199.634 120.403 198.966 120.567 198.247C120.567 198.247 120.567 198.247 120.483 198.247H120.2L120 198.097Z" fill="#FAF2F2"/>
<path d="M125.367 199.778C125.376 199.667 125.376 199.556 125.367 199.445C125.32 199.12 125.164 198.82 124.925 198.594C124.686 198.368 124.378 198.228 124.05 198.198C123.691 198.131 123.319 198.209 123.017 198.414C123.017 198.281 123.017 198.098 123.017 198.032C122.865 197.985 122.706 197.97 122.548 197.987C122.391 198.004 122.238 198.054 122.1 198.131C121.935 198.409 121.843 198.724 121.833 199.046C121.833 199.462 121.667 199.894 121.6 200.327C121.433 201.175 121.283 201.99 121.15 202.888L122.2 203.038L122.467 201.691C122.467 201.691 122.75 201.957 122.817 201.99C122.95 202.075 123.096 202.136 123.25 202.173C123.567 202.256 123.9 202.256 124.217 202.173C124.546 202.045 124.819 201.803 124.983 201.491C125.11 201.197 125.205 200.89 125.267 200.576C125.348 200.318 125.382 200.048 125.367 199.778ZM124.1 201.225C124.028 201.315 123.932 201.383 123.823 201.421C123.714 201.459 123.596 201.466 123.483 201.441C123.229 201.374 123.009 201.214 122.867 200.992C122.75 200.647 122.75 200.273 122.867 199.928C122.896 199.813 122.935 199.702 122.983 199.595C123.033 199.492 123.105 199.4 123.194 199.328C123.284 199.256 123.388 199.205 123.5 199.179C123.609 199.145 123.724 199.137 123.837 199.154C123.949 199.172 124.057 199.214 124.15 199.279C124.236 199.324 124.309 199.391 124.361 199.473C124.414 199.554 124.444 199.648 124.45 199.745C124.475 199.899 124.475 200.056 124.45 200.21C124.391 200.571 124.273 200.919 124.1 201.242V201.225Z" fill="#FAF2F2"/>
<path d="M131.95 199.911C131.75 199.79 131.53 199.706 131.3 199.662C131.058 199.613 130.809 199.613 130.567 199.662C130.376 199.688 130.192 199.751 130.026 199.848C129.86 199.945 129.715 200.074 129.6 200.227C129.522 200.319 129.465 200.427 129.433 200.543C129.417 200.682 129.417 200.821 129.433 200.959C129.437 201.222 129.545 201.474 129.733 201.658C129.905 201.806 130.111 201.909 130.333 201.957L131.017 202.057C131.11 202.042 131.206 202.042 131.3 202.057C131.391 202.102 131.462 202.179 131.5 202.273C131.52 202.356 131.514 202.443 131.485 202.523C131.455 202.603 131.402 202.672 131.333 202.722C131.174 202.795 131 202.833 130.825 202.833C130.649 202.833 130.476 202.795 130.317 202.722C130.242 202.702 130.175 202.662 130.122 202.606C130.069 202.551 130.032 202.481 130.017 202.406C129.999 202.313 129.999 202.217 130.017 202.123L129.283 201.99C129.15 201.99 129.15 201.99 129.117 202.123C129.099 202.245 129.099 202.368 129.117 202.489C129.129 202.652 129.186 202.807 129.283 202.938C129.473 203.166 129.73 203.328 130.017 203.404C130.75 203.637 131.683 203.82 132.217 203.105C132.379 202.853 132.455 202.555 132.433 202.257C132.458 202.13 132.458 202 132.433 201.874C132.302 201.646 132.096 201.47 131.85 201.375C131.598 201.298 131.342 201.237 131.083 201.192C130.937 201.166 130.799 201.103 130.683 201.009C130.608 200.971 130.546 200.911 130.507 200.836C130.468 200.762 130.454 200.677 130.467 200.593C130.494 200.514 130.542 200.444 130.607 200.392C130.672 200.339 130.75 200.305 130.833 200.294C130.965 200.269 131.101 200.269 131.233 200.294H131.483C131.587 200.353 131.671 200.441 131.725 200.548C131.778 200.654 131.799 200.774 131.783 200.893C131.95 200.893 132.117 200.976 132.283 200.992C132.45 201.009 132.583 200.992 132.633 200.992C132.658 200.883 132.658 200.769 132.633 200.66C132.648 200.555 132.648 200.449 132.633 200.344C132.455 200.133 132.217 199.982 131.95 199.911Z" fill="#FAF2F2"/>
<path d="M134.533 199.146C134.533 199.578 134.35 199.911 134.283 200.343L135.667 200.593C135.667 200.593 135.767 200.593 135.8 200.593C135.814 200.63 135.814 200.672 135.8 200.709C135.833 200.891 135.833 201.077 135.8 201.258C135.756 201.267 135.711 201.267 135.667 201.258L134.133 201.009C133.983 201.554 133.872 202.11 133.8 202.672C133.786 202.825 133.827 202.978 133.917 203.104C133.969 203.152 134.037 203.179 134.108 203.179C134.179 203.179 134.248 203.152 134.3 203.104C134.376 203.035 134.423 202.94 134.433 202.838C134.65 202.838 135.233 202.955 135.3 202.971C135.274 203.115 135.229 203.255 135.167 203.387C135.119 203.53 135.025 203.652 134.9 203.736C134.794 203.82 134.667 203.871 134.533 203.886C134.244 203.965 133.939 203.965 133.65 203.886C133.365 203.807 133.117 203.631 132.95 203.387C132.769 203.094 132.71 202.742 132.783 202.406C132.867 201.857 132.967 201.308 133.05 200.743H132.7C132.7 200.743 132.7 200.743 132.7 200.659C132.7 200.576 132.8 200.26 132.85 200.044C132.9 199.828 132.85 200.044 132.85 200.044C132.85 200.044 133.05 200.044 133.133 200.044C133.217 200.044 133.233 199.911 133.25 199.828C133.273 199.515 133.358 199.21 133.5 198.93C133.683 198.93 134.533 199.129 134.533 199.146Z" fill="#FAF2F2"/>
<path d="M136.533 202.905C136.533 202.905 136.533 202.905 136.667 202.905L137.867 203.154C138.183 203.154 138.5 203.287 138.8 203.321C138.846 203.326 138.892 203.313 138.93 203.285C138.967 203.257 138.992 203.217 139 203.171C139.094 202.87 139.139 202.555 139.133 202.24C139.137 202.053 139.104 201.867 139.035 201.692C138.967 201.518 138.864 201.359 138.733 201.225C138.577 201.1 138.403 200.999 138.217 200.926C137.926 200.806 137.615 200.744 137.3 200.743C137.001 200.734 136.706 200.813 136.451 200.97C136.197 201.126 135.993 201.354 135.867 201.624C135.624 202.178 135.538 202.788 135.617 203.387C135.644 203.698 135.753 203.997 135.933 204.252C136.074 204.401 136.244 204.52 136.433 204.601C136.914 204.817 137.447 204.886 137.967 204.801C138.145 204.755 138.31 204.67 138.45 204.551C138.671 204.346 138.813 204.069 138.85 203.77L138.267 203.653C138.267 203.653 138.133 203.653 138.1 203.653C138.034 203.798 137.914 203.911 137.767 203.969C137.603 204.011 137.431 204.011 137.267 203.969C137.1 203.97 136.936 203.936 136.783 203.87C136.699 203.829 136.624 203.771 136.564 203.699C136.504 203.627 136.459 203.544 136.433 203.454C136.4 203.289 136.4 203.119 136.433 202.955C136.433 202.955 136.5 202.988 136.533 202.905ZM137.45 201.541H137.767C137.972 201.635 138.141 201.793 138.25 201.99C138.301 202.095 138.335 202.207 138.35 202.323C138.35 202.323 138.35 202.439 138.233 202.423H137.933L137.283 202.306C137.033 202.265 136.787 202.198 136.55 202.107C136.571 202.011 136.611 201.921 136.667 201.841C136.731 201.755 136.81 201.682 136.9 201.624H137C137.147 201.586 137.301 201.581 137.45 201.608V201.541Z" fill="#FAF2F2"/>
<path d="M139 205C139.297 205.066 139.597 205.116 139.9 205.149C139.9 205.149 139.9 205.149 140 205.149L140.2 203.952C140.238 203.699 140.293 203.449 140.367 203.203C140.401 203.035 140.48 202.879 140.594 202.751C140.708 202.622 140.854 202.526 141.017 202.472C141.133 202.455 141.251 202.455 141.367 202.472C141.483 202.494 141.592 202.545 141.683 202.621C141.751 202.786 141.751 202.972 141.683 203.137C141.583 203.902 141.45 204.667 141.317 205.432C141.575 205.514 141.846 205.548 142.117 205.532H142.233L142.6 203.869C142.658 203.634 142.691 203.395 142.7 203.153C142.738 202.95 142.738 202.741 142.7 202.538C142.663 202.4 142.601 202.271 142.517 202.156C142.366 201.999 142.176 201.884 141.967 201.823C141.665 201.721 141.351 201.659 141.033 201.64C140.898 201.614 140.757 201.628 140.63 201.681C140.502 201.735 140.393 201.824 140.317 201.939V201.573C140.324 201.555 140.328 201.535 140.328 201.515C140.328 201.495 140.324 201.475 140.317 201.457H139.85C139.7 201.457 139.717 201.457 139.683 201.673C139.65 201.889 139.533 202.472 139.45 202.854C139.3 203.603 139.133 204.351 138.95 205.083C138.967 204.95 138.983 205 139 205Z" fill="#FAF2F2"/>
</g>
<defs>
<clipPath id="clip0">
<rect width="475" height="316" fill="white"/>
</clipPath>
</defs>
</svg>
