<svg xmlns="http://www.w3.org/2000/svg" viewBox="0 0 134.8501 41.0199">
  <defs/>
  <path fill="red" d="M81.5361 25.8024c-1.645-.1-2.7212-.1-2.655-1.9488.0337-1.0762.3113-1.8475 3.5713-1.7475 2.2175.0675 2.9125.5375 2.9125 2.1175h3.495c0-3.8987-2.375-5.1087-6.4413-5.175-4.3687-.0675-7.2662.84-7.3337 4.9063-.1013 5.0412 3.6625 4.9062 7.325 5.1075 1.8825.1 3.0237.1337 2.9575 2.0825-.0337 1.1775-.4188 1.9162-3.6788 1.8162-2.6875-.0675-3.18-.74-3.18-2.1512h-3.4975c0 4.0325 2.5775 5.1075 6.7113 5.175 4.4025.0675 7.3412-.9738 7.4087-5.0075.1013-5.2413-3.8312-4.9388-7.595-5.175m16.0513 7.0912c-1.8488-.035-2.0725-.97-2.0725-2.2187v-8.05h7.4675v-3.2775h-7.4675v-5.3h-3.7975v5.3h-2.21v3.2775h2.21v8.05c0 3.6637 2.1837 5.31 5.9825 5.31 3.2587 0 5.3275-1.2425 5.3275-5.175h-3.4488c-.0387 1.0462-.2775 2.1162-1.9912 2.0837m30.9087-13.845c-2.3187 0-3.7962.7388-4.7375 1.5788v-1.28h-3.2937V35.716h3.7975v-7.6287c0-2.8563-.3038-5.6788 3.7975-5.6788 3.2925 0 2.99 1.5125 2.99 4.6713v8.6362h3.7987v-8.9387c0-3.5625.2688-7.7288-6.3525-7.7288M107.7374 25.87c0-2.1838.335-3.6963 3.6625-3.6963 3.5287 0 3.7287 1.345 3.7287 3.6963h-7.3912zm3.6625-6.8213c-6.5875 0-7.5275 3.7625-7.5275 8.6688 0 4.7725 1.0425 8.2675 7.6275 8.2675 3.0912 0 7.1925-.7725 7.1925-5.175h-3.675c-.0325 1.8487-2.0063 2.05-3.3825 2.05-3.2613 0-3.9663-1.1088-3.9663-3.8988h11.225c0-5.7112-.3362-9.9125-7.4937-9.9125M66.161 32.625c-3.6637 0-3.9987-1.4113-3.9987-5.1088 0-3.6962.335-5.1075 3.9987-5.1075 3.6625 0 4 1.4113 4 5.1075 0 3.6975-.3375 5.1088-4 5.1088m0-13.5763c-2.655 0-4.6375.47-6.0487 1.8488-1.445 1.3762-1.7475 3.4937-1.7475 6.6187 0 3.1263.3025 5.2425 1.7475 6.62 1.4112 1.3788 3.3937 1.8488 6.0487 1.8488 2.6213 0 4.6375-.47 6.05-1.8488 1.4438-1.3775 1.745-3.4937 1.745-6.62 0-3.125-.3012-5.2425-1.745-6.6187-1.4125-1.3788-3.4287-1.8488-6.05-1.8488M49.7674 32.625c-3.26 0-4.1675-.975-4.1675-5.0738 0-4.1012.9075-5.1425 4.1675-5.1425 2.8225 0 3.4275 1.31 3.4275 5.1425 0 3.83-.605 5.0738-3.4275 5.0738m.605-13.5763c-1.7488-.0338-3.73.3688-5.1088 1.5788v-1.28h-3.4275v21.6725h3.7975v-6.4813c1.1088 1.1775 2.52 1.4463 4.3013 1.4463 6.3487 0 7.0537-4.47 7.0537-8.4338 0-5.21-.7725-8.4362-6.6162-8.5025M35.665 19.3467c-.3787 4.7888-4.3825 8.5575-9.2687 8.5575-4.8863 0-8.89-3.7687-9.2688-8.5575H0c.3913 9.9288 8.5588 17.8588 18.5838 17.8588 10.0237 0 18.1925-7.93 18.5837-17.8588H35.665z"/>
  <path fill="#bcbdbf" d="M17.1275 17.8587c.3787-4.7887 4.3825-8.5575 9.2687-8.5575 4.8863 0 8.89 3.7688 9.2688 8.5575h1.5025C36.7763 7.93 28.6075 0 18.5838 0 8.5587 0 .3911 7.93 0 17.8587h17.1275z"/>
</svg>