<svg viewBox="0 0 316.4 372.5">
    <path fill="#795c3f" d="M28 110l197-73 11 6L77 143l-7-4-42-29z" />
    <path fill="#e3c8aa" d="M190 72l44-33 3 2-45 31h-2z" />
    <path fill="#8a7462" d="M67 141l-54-40 141 87 1 7-3 2-51-33-34-23z" />
    <path fill="#b0957a" d="M144 183l12 5-2 182-15-174-117-75L2 94" />
    <path fill="#c3a788" d="M152 371l3-183 160-98-152 113-7 153v1l-4 14z" />
    <path fill="#e6ccaf" d="M77 140l-2-2 115-66h2L77 140z" />
    <path fill="#7b5e41" d="M13 101l41 30-1 1L2 94l11 7z" />
    <path fill="#7d6145" d="M53 132l1-1 11 8-12-7z" />
    <path fill="#82674d" d="M67 141l9 6-9-6z" />
    <path fill="#876b50" d="M78 147l3 4-3-4z" />
    <path fill="#b39069" d="M153 371l2-176L315 90l1 184-160 98h-4" />
    <path fill="#947455" d="M153 372L3 276 0 94l150 99 3 179z" />
    <path fill="#dab78d" d="M0 93L156 0l75 38-160 97M316 274l-1-182v-2l-161 98-77-48 160-99 78 49 1 184z" />
  </svg>