<svg id="Layer_1" data-name="Layer 1" xmlns="http://www.w3.org/2000/svg" xmlns:xlink="http://www.w3.org/1999/xlink" viewBox="0 0 1727.98 1594.14"><defs><style>.cls-1{fill:#8cc63f;}.cls-2{clip-path:url(#clip-path);}.cls-3{fill:#ff1d25;}.cls-4{fill:#333;}</style><clipPath id="clip-path" transform="translate(63.93 440.21)"><circle class="cls-1" cx="410.52" cy="380.94" r="370"/></clipPath></defs><title>postman</title><g id="Layer_3" data-name="Layer 3"><circle class="cls-1" cx="474.45" cy="821.15" r="370"/><g class="cls-2"><g id="akcqST"><path class="cls-3" d="M-63.93,374.22C-41.2,340-17.16,306.65,4,271.51c33.85-56.33,40.58-59.81,94-20.13q135.89,101,268.57,206.33c16.28,12.93,26,35.05,36.2,54.29,4.61,8.7,4,20.71,4,31.21-.13,22.74-8.19,34.52-34.93,29.93-73.35-12.59-87.36-3-109.47,68.29-3.49,11.25-7.12,22.52-9.64,34-12.25,55.88-23.45,62-77.59,41.57Z" transform="translate(63.93 440.21)"/><path class="cls-3" d="M1559.48,684.3c-43.4,2.05-87.46,9.73-130,4.72-51.82-6.08-104.38-17.7-152.83-36.63-37.65-14.72-69.75-19.94-108-5.88-18,6.61-40.81.27-61.43-.19,7.86-20.61,11.95-43.9,24.32-61.31,32.86-46.27,74.32-83,134.92-86.18,57.49-3,115.1-5.25,172.65-4.94,49.37.26,98.72,4.59,148.07,7.12l77,110.39Z" transform="translate(63.93 440.21)"/><path class="cls-3" d="M1206.38-45.13c-18.25-7-38.67-10.79-54.4-21.48-71-48.28-140.86-98.33-210.87-148.11-53.53-38.07-96-86-126.34-144.48l116.2-81Z" transform="translate(63.93 440.21)"/><path class="cls-3" d="M262.83,25.57c10.27,17.07,21.7,33.56,30.59,51.31,29.5,58.9,79.51,86.05,142,97.68,42.24,7.86,48.23,20.77,36.39,61.79-16.69,57.78-65.66,76.12-115.48,44-11.57-7.45-26.28-10.06-37.7-17.68-31.64-21.1-65.52-40.36-92.47-66.56-28.23-27.45-49.43-62.12-73.7-93.63Z" transform="translate(63.93 440.21)"/><path class="cls-3" d="M1112.11,996.16c-40.34-12.92-80.6-26.12-121-38.71-47.31-14.73-59.27-32.87-56.74-83.05,1.84-36.38,1.71-72.86,2.36-109.3.57-32.54,57.87-102.18,89.93-104.8,6.6-.54,22.71,19.67,20.66,24.79-11.55,28.83-23.68,58.88-42.81,82.74-15,18.67-16.46,31.35.74,43.55,28.16,20,56.78,40.62,88.07,54.59,43.63,19.48,89.9,33.08,135,49.19Z" transform="translate(63.93 440.21)"/><path class="cls-3" d="M419.69-83.79C477.35,5.08,568.26,38.72,664.53,63c86.29,21.8,169,51.09,238.24,109.73,6,5.1,11.72,10.58,16,23.12-11.38-1.09-24,.68-33.94-3.72-123.83-55-257.07-75.11-387.25-107-67.21-16.45-119.13-55.55-136-128.48Z" transform="translate(63.93 440.21)"/><path class="cls-3" d="M1530.4,419.67c-25.87-6.61-52.72-10.73-77.32-20.51-25.39-10.1-48.33-13.62-74.2-2.26-50.52,22.19-101.18,44.4-153.1,62.9-23.81,8.48-54.83,39.94-73.93-9.86-2.24-5.82-18.51-6.26-29.93-9.68,5.91-36.83,34.88-48.25,60.25-60.51,80.68-39,164.3-64.57,255.74-47.47,10.24,1.92,21.14.25,31.74.24Z" transform="translate(63.93 440.21)"/><path class="cls-3" d="M341.09,955.21c51.18,22.6,103,43.91,153.31,68.28,31.14,15.09,38,49.28,29.87,75.76-5.41,17.76-34.87,28.18-53.57,41.88Z" transform="translate(63.93 440.21)"/><path class="cls-3" d="M908.76,1137.92c-33.2-14.39-66.91-27.73-99.37-43.64-15.58-7.63-28.78-20.13-44.62-31.54,37.47-28.86,105.41-11.5,190.47,42.78Z" transform="translate(63.93 440.21)"/><path class="cls-3" d="M572.15,620.24c104.85-70.88,213.48-65,321.68-11.31,59.34,29.42,60.52,119.47,4.16,156.49-9.34,6.13-25.74,8.43-36.19,4.78-45.59-15.94-90-11.61-135.27.34-19.27,5.09-39.42,7.53-59.34,9.29-34.12,3-58.56-8.59-70.91-44.08-6.8-19.5-19.23-38-32.6-54.07C534.29,646.35,533.43,646.75,572.15,620.24Z" transform="translate(63.93 440.21)"/><path class="cls-3" d="M661,508.31c-38.09,102.87-151.67,125-215.15,53.92-27.35-30.64-25.86-64.07-14.61-99,7.35-22.78,23-21.93,37.28-6.81a178.77,178.77,0,0,1,28.45,40.17c18.82,36.5,48.21,40.31,83.6,30.88C604.64,521.07,629.07,515.86,661,508.31Z" transform="translate(63.93 440.21)"/><path class="cls-3" d="M751,901.21c10-26.44,19.5-60.21,56.45-47.17,32.78,11.56,22.67,45.67,19.81,71.32C823.92,955,801.71,966.93,776,956c-24-10.18-36-.18-52.26,13.26-12.73,10.52-29.58,20.31-45.44,21.86-28.5,2.79-43.86-25.06-31.24-51.2C664.65,903.53,712,885.6,751,901.21Z" transform="translate(63.93 440.21)"/><path class="cls-3" d="M948.75,309.58c-1.58,23.62,4.22,49.09-5.91,60.92-14.05,16.4-39.46,24.2-61.25,32.32-9.74,3.63-22.78-2.89-33.88-1.44C810,406.3,801,399,810.43,362.71c7-27,17.75-53.49,30.18-78.54,3.74-7.55,21-15.58,28.18-12.94C894.4,280.62,918.36,294.51,948.75,309.58Z" transform="translate(63.93 440.21)"/><path class="cls-3" d="M730.82,1123.3c-7.08,4.35-12.48,10-18.67,11.1-42.71,7.39-85.43,15.5-128.51,19.47-11.7,1.07-24.64-11.25-37-17.42,8.27-11.27,14.32-28.78,25.21-32.64a505.19,505.19,0,0,1,98.65-24.35C701,1075.2,720.58,1093,730.82,1123.3Z" transform="translate(63.93 440.21)"/><path class="cls-3" d="M527.71,339.94c1.69,26.58,4.93,50.31,3.7,73.8-.4,7.72-11.61,19.61-19.32,20.88s-22.1-6.22-25.17-13.44C477,398,469,373.45,464.76,348.67c-1.28-7.42,11.91-24.52,18.62-24.6C496.31,323.92,509.35,332.74,527.71,339.94Z" transform="translate(63.93 440.21)"/><path class="cls-3" d="M626.4,470.16c26-42.06,62-64.92,102.42-81.54,15.23-6.26,26.5-1.21,22.44,18.12C744.67,438.12,663,482.54,626.4,470.16Z" transform="translate(63.93 440.21)"/></g><g id="CnyKaB.tif"><path class="cls-4" d="M718,767.94h-646a16.64,16.64,0,0,1-.42-3c.07-2,.33-3.9.49-5.86a134.92,134.92,0,0,1,5.25-28.32c1.44-4.77,3.9-12.55,5.14-17.38.9-3.54,2.58-6.66,4.12-9.88a4.27,4.27,0,0,1,3.78-2.68c2.63-.06,4.46-1.39,6.11-3.22,1.2-1.33,2.58-2.5,3.71-3.87a111.54,111.54,0,0,1,16-15.67c8.77-7.11,17.41-14.39,25.8-21.94,7.68-6.92,15.57-13.66,23.81-19.9,5.75-4.36,11.57-8.6,16.81-13.58a55.54,55.54,0,0,1,4.51-3.88,172.8,172.8,0,0,0,21.09-19.66c2.66-2.84,5.21-5.69,4.81-10a1.08,1.08,0,0,1,0-.31,33.74,33.74,0,0,0,.38-11.64,39.6,39.6,0,0,1,.48-12,7.34,7.34,0,0,1,2.27-4.18c1.59-1.53,3.08-3.17,4.69-4.68a13.74,13.74,0,0,1,3-2.32,3.42,3.42,0,0,0,2.06-3.94c-.14-.84-.24-1.69-.37-2.53a197.09,197.09,0,0,0-5.65-24.11c-2.57-8.91-5.6-17.72-6.63-27a36.93,36.93,0,0,0-.8-4c-.48-2.12-.94-2.48-3.09-2.69a78.44,78.44,0,0,1-31-9.68c-3.24-1.83-6.09-4.35-9.17-6.48a12.46,12.46,0,0,1-5.41-7.78c-2-9.27-2.88-18.52,1.13-27.56a2,2,0,0,0,.31-.95c-.09-.64-.13-1.52-.54-1.82a11.46,11.46,0,0,1-3-4,6.06,6.06,0,0,0-2.64-2.22,10.58,10.58,0,0,1-5.7-6.34,33.58,33.58,0,0,0-1.43-3.46,23.26,23.26,0,0,1-2-13.43,41.26,41.26,0,0,1,4.33-14.62,3.43,3.43,0,0,0-.59-4.59c-.83-.84-1.5-1.85-2.28-2.74-7.76-8.83-15.66-17.54-23.23-26.52-6.92-8.2-13.47-16.69-20.19-25.06a3,3,0,0,1-.2-3.79,23.24,23.24,0,0,1,2.54-3.51c5.21-5.5,10.36-11.07,15.79-16.35,5.26-5.09,10.78-9.92,16.28-14.75,10-8.84,20.07-17.66,30.22-26.36,12.63-10.81,26.08-20.58,39.47-30.39a353.38,353.38,0,0,1,62.3-36.45c4.73-2.16,9.3-4.67,14.09-6.66,11.24-4.67,22.53-9.25,34.12-13a31.52,31.52,0,0,1,4.71-1.08,3.67,3.67,0,0,1,4.17,2.23c.78,1.61,1.66,3.17,2.48,4.76a213.74,213.74,0,0,1,10.57,23c1.35,3.64,2.71,7.27,4.19,10.85,4.41,10.67,8.3,21.49,10.42,32.87.58,3.12,1,3.45,4.26,3.38.26,0,.52,0,.77,0A103.4,103.4,0,0,1,383,258c3.38.38,6.77.75,10.16,1.06a35,35,0,0,1,10.93,2.39c1.08.47,2.46.88,2.24,2.39s-1.67,1.43-2.84,1.59a18.8,18.8,0,0,0-4.75.78,59.32,59.32,0,0,1-10,3.13,48.15,48.15,0,0,0-11.77,4.4c-4.53,2.42-5.48,3.3-3.39,6l.33.38q9.38,11,18.76,21.94c.54.63,1.11,1.24,1.7,1.81,2.89,2.8,5.79,5.58,8.69,8.37a9.09,9.09,0,0,1,2.83,5c1.48,8.27,2,16.58.51,24.9-1.25,6.78-2.69,13.53-4.17,20.26a7.9,7.9,0,0,0,1.32,6.73c3.16,4.44,6.15,9,9.18,13.54,3.21,4.8,5.59,10,6.1,15.8S419.91,410.12,420,416c.12,6.63-.1,13.28-.52,19.91-.26,4.15,1.06,7.62,3.11,11a21.17,21.17,0,0,1,1.06,1.92c2.79,6,2.86,12.46,3.87,18.78.47,3,1.27,3.85,4.52,4a27.38,27.38,0,0,1,11.11,2.93,47.46,47.46,0,0,0,5.17,2.11,3.82,3.82,0,0,0,3.88-.42,5.09,5.09,0,0,1,5.56-.51c4,1.93,8,1.11,11.94-.15a4.5,4.5,0,0,0,2.82-6.32c-2.29-5-4.52-10-7-14.88a60.69,60.69,0,0,1-5.18-16c-.47-2.51-.93-5-1.32-7.55a94.19,94.19,0,0,1-.84-24.19A181.65,181.65,0,0,1,463,381.85a83.34,83.34,0,0,1,20.57-37.13,148.12,148.12,0,0,1,27.2-22.3,36.67,36.67,0,0,1,5-2.54,126.24,126.24,0,0,1,26.6-8.08A56.4,56.4,0,0,1,554,310.51a209.14,209.14,0,0,1,35.59,3,6.39,6.39,0,0,0,5.76-1.9c5.06-5.25,10.27-10.38,15.48-15.49,2.33-2.28,2.46-2.91.67-5.66-2.13-3.28-4.2-6.61-6.32-9.9-1.66-2.57-3.32-5.15-5.07-7.66-4.43-6.37-9.65-12.11-14.6-18.06a154.18,154.18,0,0,0-12.23-12.68,36.37,36.37,0,0,0-5.06-3.86c-5.66-3.44-10.87-7.59-17.22-9.9-5.23-1.89-10.24-4.18-15.94-1.81a8.89,8.89,0,0,1-4,.41,10.51,10.51,0,0,1-3.82-1.15,3.78,3.78,0,0,1-2-4,12.42,12.42,0,0,1,1.58-3.83c3.83-6.61,9.64-11.15,16-15.13,14.64-9.19,30.34-16.18,46.46-22.28,8.28-3.14,16.59-6.21,24.85-9.41a201.2,201.2,0,0,1,49.61-12.72c3.12-.36,6.28-.56,9.42-.62a6.41,6.41,0,0,1,3.61.9c3.34,2.33,3.83,8.2,1,11.23a17.27,17.27,0,0,1-3,2.33c-2.11,1.44-4.27,2.8-6.38,4.24a7.23,7.23,0,0,0-3.15,3.91c-1.17,4.17-2.4,8.34-3.27,12.58-.74,3.57-1.06,7.24-1.48,10.87a72.21,72.21,0,0,0-.76,8.9c.09,8.35.35,16.69,1.93,24.93.95,4.93,1.64,9.92,2.55,14.86,1.2,6.53,2.6,13,3.75,19.57,2.28,13,4.68,26,8.66,38.61,2.44,7.71,5.11,15.35,7.37,23.12,2.64,9.07,5.28,18.16,7.31,27.38A133.55,133.55,0,0,1,694.54,391c0,5.27.43,10.59-.1,15.8-.9,8.91-2.16,17.8-3.7,26.62a58.62,58.62,0,0,1-3.61,12.52,171.47,171.47,0,0,1-22,37.79,32.83,32.83,0,0,1-3,3.27c-3.46,3.23-6.78,6.66-11.13,8.79a6.54,6.54,0,0,0-.84.57,3.54,3.54,0,0,0-1.65,3.74c.93,5.21-.2,10.16-1.75,15.07-1.15,3.66-2.32,7.31-3.34,11a18.59,18.59,0,0,0,.06,10.83,31.86,31.86,0,0,1,.84,4.86c.32,2.07.52,4.15.74,6.23a5.34,5.34,0,0,0,2,3.68,30,30,0,0,1,4,4.3c3.84,5,5.72,10.82,7,16.84a32.67,32.67,0,0,0,5.42,11.45,28.37,28.37,0,0,1,3.44,5.92c2.54,6.86,4.85,13.82,7.56,20.62a389.82,389.82,0,0,1,12.91,39.58c1.15,4.09,2.08,8.25,3.37,12.3,1.08,3.4,2.49,6.7,3.87,10a77.42,77.42,0,0,0,4.42,9.76,150.66,150.66,0,0,1,10.23,22c2.07,5.32,4,10.68,6.26,15.93A55.72,55.72,0,0,1,719,732.29a80.53,80.53,0,0,0,2.17,8.89C724,750.59,722.62,759.45,718,767.94ZM493.34,412.86a38.66,38.66,0,0,0,1.72,13.91c.49,1.54,1,3.07,1.44,4.63,2.09,7.79,6.36,14.43,10.94,20.92,3.31,4.69,7.47,8.6,11.55,12.57a51.81,51.81,0,0,0,4.86,4.14c1.83,1.41,3,.9,3.33-1.34.12-.76.12-1.53.23-2.29.84-6.12,3.85-8.51,10-7.71,5.9.78,11.78,1.75,17.68,2.52a7.08,7.08,0,0,0,3.16-.51c2.42-.88,4-2.88,5.56-4.76,4.44-5.21,10.29-7.29,16.9-7.69a7.2,7.2,0,0,1,5,1.65c.6.47,1.18,1,1.76,1.47a3.37,3.37,0,0,0,4.23.43c3.35-1.87,6.75-3.63,10-5.58a8.87,8.87,0,0,1,5.8-1.55c4.61.62,9.39.44,13.63,2.88a3,3,0,0,0,3.39-.09c2.79-2,5.66-1.81,8.75-.76s3.74.7,4.87-2.52c1.56-4.51,3-9.05,4.57-13.55,3-8.59,2.43-17.26.74-26-.41-2.08-.92-4.15-1.36-6.23A43,43,0,0,0,635,380.35c-2.37-3.21-4.79-6.4-7.33-9.48a17.14,17.14,0,0,0-4.41-4.18c-2.25-1.3-4.43-2.46-5.51-5a3.9,3.9,0,0,0-1-1.11,34.52,34.52,0,0,0-9.59-6.22c-5.38-2.36-10.68-4.87-16-7.3a31.1,31.1,0,0,0-13.57-3.13c-1.28,0-2.56,0-3.83-.06a82.84,82.84,0,0,0-22.6,1.5c-1.83.38-3.68.74-5.53,1a39.93,39.93,0,0,0-18.3,7.35A82.93,82.93,0,0,0,514,365.25C501.49,378.7,494.05,394.33,493.34,412.86ZM433.1,488.11a24.84,24.84,0,0,0,0,2.51,15.78,15.78,0,0,1-1.33,9.22,6.19,6.19,0,0,0,.74,7.35,8,8,0,0,1,1.6,5.77,11.54,11.54,0,0,1-2.9,7.2A12.49,12.49,0,0,0,428,530.74a11.33,11.33,0,0,1-3.89,10.34,7.51,7.51,0,0,0-2.75,4.69,24.33,24.33,0,0,1-.76,2.43,6.28,6.28,0,0,0-.38,2.49c.94,4.75,1.94,9.51,3.08,14.22a3.86,3.86,0,0,0,1.87,2.22,82.72,82.72,0,0,0,8.68,3.68c9,3.16,18,6.18,27.06,9.26,2.9,1,5.76,2.09,8.68,3,4.3,1.36,8.63,2.62,13,3.91,3.83,1.15,7.78,2,11.45,3.51,9.6,4,19.2,8,28.53,12.53,5.3,2.58,11,4.59,15.6,8.49a4.11,4.11,0,0,0,1.35.69A61.72,61.72,0,0,1,551,617.66a3,3,0,0,0,2.31.3c.39-.16.39-1.33.52-2.05a2,2,0,0,0-.09-.76c-.8-4.35-1.64-8.69-2.4-13a23.68,23.68,0,0,1-.53-4.8c.12-4.12,1.52-7.63,5.26-9.88.72-.43,1.31-1.09,2-1.53,3.48-2.11,3.69-3,1.46-7.08-.16-.3-.34-.59-.53-.88q-2.56-4.09-5.14-8.2c-2.41-3.85-5.5-7-9.85-8.54-5.29-1.89-10.61-3.68-16-5.42a108.34,108.34,0,0,1-20.88-8.84c-2.21-1.28-3.49-3.1-3.37-5.59a39,39,0,0,1,1-6.78c.59-2.48,1.5-4.89,2.17-7.35.6-2.22,1.16-4.46,1.55-6.72.36-2.1-.24-3-2.33-3.57-1.88-.51-3.86-.71-5.73-1.25a90.71,90.71,0,0,1-10.16-3.33c-4.07-1.73-7.9-4-11.9-5.9-4.76-2.26-9.58-4.4-14.39-6.57-1.94-.88-3.9-1.7-5.85-2.53-1.79-.77-3.57-1.6-5.4-2.29-5.41-2-10.84-4-16.27-6C435.56,488.73,434.51,488.5,433.1,488.11ZM639.67,335.28l.52-.55a17,17,0,0,0-.6-1.87,38,38,0,0,0-6.11-9.65,78.11,78.11,0,0,1-6-8.24c-2.29-3.57-4.35-7.3-6.55-10.93a26.61,26.61,0,0,0-2.33-3.34c-1.28-1.54-2.17-1.58-3.68-.36-.39.32-.74.71-1.11,1.06l-10.06,9.37a30,30,0,0,0-2.74,2.67c-.85,1-.65,1.87.52,2.5a21.08,21.08,0,0,0,2.61,1c11.83,4.38,23.41,9.24,33.43,17.16A14.76,14.76,0,0,0,639.67,335.28ZM493.37,490.36c-.12-1.68-1.25-2.28-2.18-2.92a64,64,0,0,1-10.59-9.54,13.72,13.72,0,0,0-1.28-1.25c-1.27-1.06-2.24-1.22-3.37,0a12.67,12.67,0,0,1-9.17,3.81c-.72,0-1.59,0-1.89,1.17.61,1.16,1.88,1.49,3.06,1.86q10.11,3.18,20.23,6.29a22.53,22.53,0,0,0,3.23.74A9,9,0,0,0,493.37,490.36ZM465.58,487c-1.78,1.42-2.12,2.38-1.53,4.36A4.84,4.84,0,0,0,465.58,487Z" transform="translate(63.93 440.21)"/><path class="cls-4" d="M465.58,487a4.84,4.84,0,0,1-1.53,4.36C463.46,489.37,463.8,488.41,465.58,487Z" transform="translate(63.93 440.21)"/></g></g></g></svg>