<svg id="Layer_1" data-name="Layer 1" xmlns="http://www.w3.org/2000/svg" viewBox="0 0 352.67 512.16">
  <defs>
    <style>
      .cls-1 {
        fill: #fe555d;
      }

      .cls-2 {
        fill: #fed573;
      }

      .cls-3 {
        fill: #e14a54;
      }

      .cls-4 {
        fill: #e24a54;
      }

      .cls-5 {
        fill: #f3b34c;
      }

      .cls-6 {
        fill: #fec05b;
      }

      .cls-7 {
        fill: #fefefd;
      }

      .cls-8 {
        fill: #fee595;
      }

      .cls-9 {
        fill: #fdfdfb;
      }
    </style>
  </defs>
  <title>quality</title>
  <g id="wL0VAp.tif">
    <g>
      <path class="cls-1" d="M664,499c-13,37.3-26.11,79.44-38.92,116.79-2.05,6-4.18,12-6.28,17.92-1.24,3.54-3.07,6.22-6.8,7.29h-6c-3.3-2.08-5.65-5.08-8-8.12-7.54-9.93-15.19-19.78-22.61-29.8-1.78-2.41-3.45-2.9-6.27-2.13-13.14,3.57-26.35,6.91-39.51,10.4-4.09,1.08-7.9,1.31-11-2.18-3-3.32-2.35-6.9-1-10.73Q541,530.32,564.35,462.16c.48-1.39,1.07-2.74,1.61-4.11,7.6,5,14.92,10.43,22.91,14.89A195,195,0,0,0,658.7,496.5" transform="translate(-507.64 -128.84)"/>
      <path class="cls-1" d="M708.22,496.62c34.14-4.57,65.06-17,92.46-38a4.16,4.16,0,0,1,1.36-.6q15.87,45.92,31.75,91.83c5.58,16.18,11,32.4,16.64,48.57,1.33,3.82,1.94,7.41-1,10.73-3.13,3.48-6.94,3.26-11,2.17-13-3.47-26.06-6.76-39-10.32-3.17-.87-5-.34-7.07,2.43-7.35,10.07-15,19.91-22.58,29.83-2.22,2.9-4.51,5.75-7.68,7.71h-6c-4-1.07-5.65-4.13-7-7.76-9.08-25.4-17.55-51-26.41-76.48C716.52,539.15,710.09,516.62,704,499" transform="translate(-507.64 -128.84)"/>
      <path class="cls-2" d="M698.69,482.93c-6.8-2.14-13.78-.54-20.67-.91-2.89-.15-6-.86-8.72.93-35.07-3.14-66.65-15.24-94.53-36.85a10.43,10.43,0,0,1-3.63-4c-6.35-7-13.77-12.94-20-20.17-13.35-15.54-24.09-32.56-31.49-51.64a179.53,179.53,0,0,1,4.74-140.34,170.23,170.23,0,0,1,33.44-48c23-23,50.1-38.93,81.83-47.22a176.12,176.12,0,0,1,56.81-5.44,173.3,173.3,0,0,1,62.73,16.51,175.94,175.94,0,0,1,89.7,96.55,172,172,0,0,1,11.35,57.84,183.29,183.29,0,0,1-5.4,49.74c-7.21,28.28-21,52.87-40.42,74.58-5.58,6.23-12.3,11.18-17.59,17.61-3.15,5-8.29,7.7-12.9,10.81A176.73,176.73,0,0,1,698.69,482.93Z" transform="translate(-507.64 -128.84)"/>
      <path class="cls-3" d="M698.69,482.93A82.66,82.66,0,0,1,709,480.38a175.06,175.06,0,0,0,84.9-36.58,22.83,22.83,0,0,1,3-1.73q2.58,8,5.18,16c-3.69,5.83-9.92,8.5-15.37,12C765.91,483.39,728.12,494.21,704,499" transform="translate(-507.64 -128.84)"/>
      <path class="cls-4" d="M571.14,442.07c8.44,5.28,16.08,11.69,24.8,16.6a182.53,182.53,0,0,0,61.14,21.47c4.06.66,6.92,1.86,12.22,2.81-1.9,5.32-3.4,10.73-5.3,16.05-9.85-2-20.27-3.22-30-5.95a199.84,199.84,0,0,1-65.84-31.93c-1.13-.84-2.1-1.59-2.2-3.07Z" transform="translate(-507.64 -128.84)"/>
      <path class="cls-5" d="M534,306.5c.15-86.54,68.32-151.25,150.13-151.06,83.77.2,151.11,66.93,149.78,152.83-1.26,81-66.24,147.22-149.79,147.38C601.12,455.82,534.76,389.46,534,306.5Z" transform="translate(-507.64 -128.84)"/>
      <path class="cls-6" d="M784,217.28c1.4,5.77,6.52,9,9.49,13.66,9.91,15.7,17.31,32.28,20.73,50.76,2,11,2.08,21.86,1.63,32.75A120,120,0,0,1,802.75,364a134.17,134.17,0,0,1-26.88,36.74A131.19,131.19,0,0,1,716.13,434a122.85,122.85,0,0,1-39.45,3.92c-24.91-1.88-47.87-9.37-68.55-24a133.24,133.24,0,0,1-39.39-43A123,123,0,0,1,553,323.69c-2.18-18.62-1.71-37.06,3.91-55.15a138.91,138.91,0,0,1,22-43.2A130.12,130.12,0,0,1,629.3,185c13.62-6.24,28-9.62,43.08-11.17,17.19-1.77,33.68.63,50.06,5.16a104.14,104.14,0,0,1,25.65,10.77c1.58.93,2.91,2.34,4.95,1.3,1,4.22-2,6.72-4.26,9.39a41.67,41.67,0,0,1-21.08,13.83c14.48,6,24.89,14.82,29.17,29.46,1.9-1,1.85-2.69,2.41-4,4-9.33,10.12-16.76,19.29-21.39C780.22,217.52,781.86,215.89,784,217.28Z" transform="translate(-507.64 -128.84)"/>
      <path class="cls-7" d="M784,217.28c-14,5.08-21.74,15.95-26.79,29.79-5-16.58-15.67-27-32-32.42C737.35,209.83,747.9,203.53,753,191c1.29-2.82,2.57-5.63,4-8.71,1.91,1.15,2.19,3,2.74,4.63,4.19,12.09,12.5,20.12,24.17,25,1.82.76,5.16.17,5.1,2.77C789,216.56,785.72,216.36,784,217.28Z" transform="translate(-507.64 -128.84)"/>
      <path class="cls-5" d="M732.27,402c-7.41.92-13.54-3.1-19.85-6.36-8.27-4.28-16.45-8.73-24.59-13.26-2.5-1.39-4.45-1.08-6.92.23-11.75,6.23-23,13.62-35.54,18.08-15.77,5.6-31.41-3.48-35.52-19.41-1.9-7.39.38-14.15,1.38-21.12,1.24-8.67,3-17.26,4.55-25.88.55-3.05-1-5.16-3-7-8.18-7.33-16-15-23.77-22.79-12.07-12.19-13.18-25.11-2.81-38.68,4.7-6.14,11.63-8.62,19-9.77q17.16-2.66,34.36-5a5.29,5.29,0,0,0,4.45-3.37c5-10.48,10.06-21,15.39-31.33,8.6-16.69,26.62-21.65,42-10.8a22.54,22.54,0,0,1,7.21,8.71c5.39,10.84,10.82,21.68,15.8,32.71,2.07,4.56,6,4.33,9.56,4.92,11.25,1.9,22.61,3.15,33.83,5.15,10.56,1.89,17.49,8.54,20.84,18.55s.81,19.09-6.39,26.63c-7.59,7.95-15.12,16.05-23.43,23.21-5.47,4.7-5.65,9.55-4.32,15.72A290.26,290.26,0,0,1,760,374.4C761.35,388.65,746.94,403.71,732.27,402Z" transform="translate(-507.64 -128.84)"/>
      <path class="cls-2" d="M740,381c-3.7,4.24-6.94,5.08-11.76,2.6q-20.15-10.37-40.15-21c-2.48-1.33-4.17-1.36-6.76.06-12.81,7-25.78,13.78-38.77,20.49-8.74,4.51-16.22,0-15.4-9.72.74-8.86,2.8-17.61,4.32-26.39q1.68-9.77,3.45-19.52c.5-2.73-1.1-4.41-2.89-5.94-10.92-9.27-20.5-19.92-30.83-29.8-3.13-3-5.11-6.53-3.93-10.63,1.3-4.51,5-6.61,9.75-7.25,13.92-1.86,27.79-4,41.7-5.89a8.88,8.88,0,0,0,7.33-5.12c1.88-3.69,3.91-7.3,5.87-10.94,3.13.83,4.27,3.68,5.57,6.06,12.73,23.21,27,45.53,40.18,68.46C718.23,344.78,728.89,363,740,381Z" transform="translate(-507.64 -128.84)"/>
      <path class="cls-8" d="M740,381c-5.76-3.1-7.09-9.38-10.09-14.39-14.85-24.75-29.48-49.64-44.19-74.48L661.93,252c.72-4.56,3.46-8.19,5.49-12.16,2.71-5.33,5.23-10.76,7.75-16.18,1.94-4.17,5.13-6.7,9.72-6.46s7.4,2.78,9.37,7c4.18,9.05,8.83,17.89,13.25,26.83.76,1.54,1.36,3.17,3.6,2.2,1.15,2.49-.84,3.64-2.24,4.93a33.49,33.49,0,0,1-8.63,5.36c-.38,1.68.71,2,1.54,2.46a29.54,29.54,0,0,1,12.7,12.31c1.57,2.95,2.8,2.94,4.2-.05a27.07,27.07,0,0,1,7.7-9.67c1-.82,2.16-1.71,3.54-.56,6.77,3.09,14.23,2.51,21.3,4,4.21.88,8.55,1.11,12.73,2.06,7.92,1.8,10.76,9.71,5.85,16.22-3.11,4.13-7.33,7.21-11.07,10.74-7.38,7-14.42,14.31-21.7,21.39a6.07,6.07,0,0,0-2.11,6.05c2.57,14.66,4.82,29.38,7.47,44C743,376,742.4,378.6,740,381Z" transform="translate(-507.64 -128.84)"/>
      <path class="cls-9" d="M729.92,268c-5.23,2.43-8.18,6.84-10.61,11.84-.63,1.3-1,3.65-3,3.49-1.57-.14-1.8-2.19-2.45-3.49a27.69,27.69,0,0,0-13.13-12.95c-1.29-.62-3.32-.88-3.31-2.59,0-2,2.34-2,3.71-2.75,3.94-2.07,8-3.95,10-8.33,2.53-2.44,2.84-6.25,5.73-9.57,3.44,10.19,9.94,16.74,19.79,20C735,266.71,731.83,266.35,729.92,268Z" transform="translate(-507.64 -128.84)"/>
    </g>
  </g>
</svg>
