<svg viewBox="0 0 538.2 652.3">
    <path d="M232 464c-2-56 22-145 88-154 7-1 13 0 20 1 9 0 12-3 20-9 13-10 27-23 43-29 27-11 69-20 80-51 13-34-2-68 4-103 4-27 26-51 52-59 61-16 114 50 127 102a157 157 0 01-10 99c-7 14-15 26-25 38-6 8-6 7 3 11l25 12c55 30 108 78 111 145 1 30-13 59-36 78a130 130 0 01-18 12c-4 2-13 5-16 8-3 5-1 12-2 18a72 72 0 01-8 25c-15 28-44 47-74 51-18 2-29 14-43 25s-23 17-40 21c-19 5-32 7-52 4-18-3-37-14-54-22a199 199 0 01-85-74c-2-4-8-19-12-21-5-3-20 3-26 3-17 0-31-12-42-24-24-30-31-70-30-107zm122 128l1 2c18 30 47 55 77 71a4 4 0 004 1c1 2 3 2 5 3 30 16 67 23 99 8a100 100 0 0034-24c6-7 9-9 3-13s-20-6-28-8c5-3 16-1 21-1l29-1c17 0 34-5 48-13 14-7 23-17 28-32 4-14 9-35-10-35-2-2-4-2-6-2l-5-2-16-5c15-4 31-3 46-6s26-12 37-21c26-21 27-44 17-73 0-17-24-41-35-53-14-14-31-26-48-36-37-22-77-35-117-48 6-4 22 0 30 0 9 0 26 4 34 0 15-8 29-38 36-52 19-44 10-92-21-128-8-13-35-32-50-35-17-4-34 4-45 17-12 16-12 35-10 54 2 23 4 46-3 69-14 44-52 51-90 64a186 186 0 00-53 30c-17 14-24 31-37 46-2-8 13-28 8-34-7-10-30 5-36 9-22 18-38 53-41 80-9 20-6 53-3 74 3 22 9 43 22 60 9 12 36 30 49 14 7-8-11-33-1-39 6 15 12 42 24 54a11 11 0 003 5z" transform="translate(-232 -58)" />
    <path fill="#f3f3f3" d="M538 304c40 13 80 26 117 48 17 10 34 22 48 36 11 12 35 36 35 53-2 0-6 17-7 19a82 82 0 01-17 24c-14 14-34 25-53 31-11 3-23 4-34 6-8 2-30 2-36 6-5 4-3 4 3 10 7 8 12 18 18 26 12 47-54 46-85 49-11 1-11 1-11 12 0 9 1 20-6 28-15 17-40-1-56-6-36-22-63-45-92-75-8-17-19-31-26-48-3-6-11-46-15-47-2 0-13 17-16 19-10 8-19 4-26-6s-11-21-14-33c-1-4-2-31-4-32 2-27 18-62 40-80 6-4 28-18 35-10 6 7-9 26-7 35 13-15 19-31 35-44a186 186 0 0155-32c38-14 76-20 90-64 7-21 6-44 3-66-2-20-3-40 10-57 10-12 26-19 43-17 15 2 44 22 52 35 0 42 1 82-20 120-8 15-20 29-34 39a121 121 0 01-22 13c-8 3-18 4-25 8 7 1 14-2 22 0zM359 448c0 9 45 15 52 17 11 2 43 15 51 4 13-19-28-18-35-19l-68-2zm-10 48c9 10 69 71 83 52 11-14-69-53-83-52zm19-92c5 3 16-1 22-1l27-2c4-1 48-7 39-18-3-4-39 0-44 1-14 3-33 12-44 20z" transform="translate(-232 -58)" />
    <path d="M538 304c-8-2-15 1-22 0 6-4 15-4 22-7a121 121 0 0023-12c15-10 27-25 36-41 21-38 20-78 20-120 31 36 39 84 21 128-7 14-21 45-36 52-8 3-23 0-31 0s-26-4-33 0zM454 646c16 5 38 21 54 7 8-6 8-17 8-26 0-13-1-14 11-15 31-3 97-2 85-49 3 0 6 2 9 1l11-7c6-3 15-10 22-11l5 2c2 4 12 2 16 5 6 4 3 13 2 20-3 18-10 33-25 42a117 117 0 01-46 15l-29 1c-6 0-22-3-28 1l25 7c9 4 8 4 2 12-10 11-22 20-36 26-32 15-69 8-99-8-1-3-3-2-5-3a4 4 0 01-3-1c2-9 23-9 21-19zM260 424c3 2 4 28 5 32 3 12 7 23 14 33s15 14 26 6c3-2 14-19 16-19 3 1 13 42 15 47 7 17 18 31 26 48 0 7-13 8-11 16-12-12-17-39-24-54-11 6 9 31 1 39-13 15-40-2-49-14-13-17-19-38-22-60-3-21-6-54 3-74z" fill="#bdccd4" transform="translate(-232 -58)" />
    <path d="M654 546c-7 1-16 8-22 11l-9 6c-7 2-5-1-11 0l-16-24c-6-6-11-7-5-12s25-4 33-5c12-2 25-3 37-7a130 130 0 0053-31 82 82 0 0015-21c2-3 7-22 9-22 10 29 9 52-17 73-11 9-22 18-37 21s-31 2-46 6l16 5zM351 587c-2-7 11-9 11-16 29 30 56 53 92 75 2 10-19 10-22 19a202 202 0 01-78-73 11 11 0 01-3-5z" fill="#bdccd4" transform="translate(-232 -58)" />
    <path d="M665 550c-3 0-5 0-6-2 2 0 4 0 6 2zM436 666c2 1 4 0 5 3-2-1-4-1-5-3z" fill="#040404" transform="translate(-232 -58)" />
    <path fill="#b0cdda" d="M354 592c1 0 2 1 1 2l-1-2z" transform="translate(-232 -58)" />
    <path d="M359 448l68 2c8 1 48 0 35 19-8 11-40-2-51-4-6-1-52-8-52-17zM349 496c14-1 94 38 83 52-14 19-74-42-83-52zM368 404c11-8 29-16 42-19 6-2 43-6 46-2 8 11-31 17-36 17l-27 3c-6 0-21 3-25 1z" transform="translate(-232 -58)" />
  </svg>